<svg width="152" height="108" viewBox="0 0 152 108" fill="none" xmlns="http://www.w3.org/2000/svg" xmlns:xlink="http://www.w3.org/1999/xlink">
<path d="M56.111,5.281C54.44,6.726 54.258,9.253 55.704,10.923C57.15,12.593 59.676,12.775 61.346,11.329L56.111,5.281ZM68.833,29.333L68.848,25.333L68.833,25.333L68.833,29.333ZM4.333,25.333C2.124,25.333 0.333,27.124 0.333,29.333C0.333,31.542 2.124,33.333 4.333,33.333L4.333,25.333ZM82.846,96.671C81.176,95.225 78.65,95.407 77.204,97.077C75.758,98.748 75.94,101.274 77.611,102.719L82.846,96.671ZM90.333,78.667L90.333,82.667L90.348,82.667L90.333,78.667ZM4.333,74.667C2.124,74.667 0.333,76.458 0.333,78.667C0.333,80.876 2.124,82.667 4.333,82.667L4.333,74.667ZM114.46,24.633C112.784,26.072 112.591,28.597 114.03,30.274C115.469,31.95 117.994,32.142 119.67,30.704L114.46,24.633ZM129.75,54L129.75,58L129.756,58L129.75,54ZM4.333,50C2.124,50 0.333,51.791 0.333,54C0.333,56.209 2.124,58 4.333,58L4.333,50ZM61.346,11.329C62.521,10.312 64.018,9.522 65.722,9.074L63.687,1.337C60.874,2.076 58.265,3.416 56.111,5.281L61.346,11.329ZM65.722,9.074C67.426,8.626 69.244,8.545 71.003,8.844L72.344,0.958C69.47,0.469 66.5,0.597 63.687,1.337L65.722,9.074ZM71.003,8.844C72.762,9.144 74.364,9.806 75.677,10.732L80.29,4.196C77.951,2.545 75.219,1.447 72.344,0.958L71.003,8.844ZM75.677,10.732C76.988,11.657 77.948,12.801 78.534,14.02L85.745,10.555C84.526,8.019 82.631,5.848 80.29,4.196L75.677,10.732ZM78.534,14.02C79.117,15.233 79.328,16.514 79.183,17.766L87.129,18.689C87.454,15.898 86.966,13.098 85.745,10.555L78.534,14.02ZM79.183,17.766C79.037,19.02 78.528,20.276 77.639,21.416L83.945,26.338C85.689,24.104 86.805,21.478 87.129,18.689L79.183,17.766ZM77.639,21.416C76.746,22.559 75.492,23.553 73.948,24.257L77.269,31.535C79.897,30.336 82.205,28.568 83.945,26.338L77.639,21.416ZM73.948,24.257C72.403,24.962 70.649,25.34 68.848,25.333L68.819,33.333C71.741,33.344 74.641,32.734 77.269,31.535L73.948,24.257ZM68.833,25.333L4.333,25.333L4.333,33.333L68.833,33.333L68.833,25.333ZM77.611,102.719C79.765,104.584 82.374,105.924 85.187,106.663L87.222,98.926C85.518,98.478 84.021,97.688 82.846,96.671L77.611,102.719ZM85.187,106.663C88,107.403 90.97,107.531 93.844,107.042L92.503,99.156C90.744,99.455 88.926,99.374 87.222,98.926L85.187,106.663ZM93.844,107.042C96.719,106.553 99.451,105.455 101.79,103.804L97.177,97.268C95.864,98.194 94.262,98.857 92.503,99.156L93.844,107.042ZM101.79,103.804C104.131,102.152 106.026,99.981 107.245,97.445L100.034,93.98C99.448,95.199 98.488,96.343 97.177,97.268L101.79,103.804ZM107.245,97.445C108.466,94.902 108.954,92.102 108.629,89.311L100.683,90.234C100.828,91.486 100.617,92.767 100.034,93.98L107.245,97.445ZM108.629,89.311C108.305,86.522 107.189,83.896 105.445,81.662L99.139,86.584C100.028,87.724 100.537,88.98 100.683,90.234L108.629,89.311ZM105.445,81.662C103.705,79.432 101.397,77.664 98.769,76.465L95.448,83.743C96.992,84.447 98.246,85.441 99.139,86.584L105.445,81.662ZM98.769,76.465C96.141,75.266 93.241,74.656 90.319,74.667L90.348,82.667C92.149,82.66 93.903,83.038 95.448,83.743L98.769,76.465ZM90.333,74.667L4.333,74.667L4.333,82.667L90.333,82.667L90.333,74.667ZM119.67,30.704C121.265,29.335 123.274,28.287 125.539,27.698L123.525,19.955C120.154,20.833 117.034,22.424 114.46,24.633L119.67,30.704ZM125.539,27.698C127.804,27.108 130.215,27.007 132.546,27.407L133.899,19.522C130.455,18.931 126.896,19.078 123.525,19.955L125.539,27.698ZM132.546,27.407C134.877,27.807 137.014,28.689 138.778,29.934L143.394,23.4C140.606,21.431 137.342,20.113 133.899,19.522L132.546,27.407ZM138.778,29.934C140.54,31.179 141.854,32.732 142.665,34.416L149.873,30.944C148.429,27.947 146.183,25.37 143.394,23.4L138.778,29.934ZM142.665,34.416C143.474,36.093 143.774,37.88 143.575,39.633L151.524,40.537C151.898,37.247 151.319,33.947 149.873,30.944L142.665,34.416ZM143.575,39.633C143.376,41.388 142.672,43.126 141.463,44.685L147.787,49.585C149.845,46.929 151.15,43.823 151.524,40.537L143.575,39.633ZM141.463,44.685C140.251,46.25 138.564,47.589 136.51,48.538L139.862,55.801C142.997,54.355 145.733,52.237 147.787,49.585L141.463,44.685ZM136.51,48.538C134.455,49.486 132.129,49.996 129.744,50L129.756,58C133.259,57.995 136.728,57.248 139.862,55.801L136.51,48.538ZM129.75,50L4.333,50L4.333,58L129.75,58L129.75,50Z" fill="#1E1E1E"/>
</svg>
