<svg width="64" height="68" viewBox="0 0 64 68" fill="none" xmlns="http://www.w3.org/2000/svg" xmlns:xlink="http://www.w3.org/1999/xlink">
<path d="M5,24.25L2.587,21.059C1.588,21.815 1,22.996 1,24.25L5,24.25ZM32,3.833L34.413,0.643C32.985,-0.437 31.015,-0.437 29.587,0.643L32,3.833ZM59,24.25L63,24.25C63,22.996 62.412,21.815 61.413,21.059L59,24.25ZM5,56.333L1,56.333L5,56.333ZM19,62.167C19,64.376 20.791,66.167 23,66.167C25.209,66.167 27,64.376 27,62.167L19,62.167ZM23,33L23,29C20.791,29 19,30.791 19,33L23,33ZM41,33L45,33C45,30.791 43.209,29 41,29L41,33ZM37,62.167C37,64.376 38.791,66.167 41,66.167C43.209,66.167 45,64.376 45,62.167L37,62.167ZM7.413,27.441L34.413,7.024L29.587,0.643L2.587,21.059L7.413,27.441ZM29.587,7.024L56.587,27.441L61.413,21.059L34.413,0.643L29.587,7.024ZM55,24.25L55,56.333L63,56.333L63,24.25L55,24.25ZM55,56.333C55,56.783 54.817,57.237 54.454,57.59L60.031,63.326C61.918,61.491 63,58.978 63,56.333L55,56.333ZM54.454,57.59C54.087,57.947 53.566,58.167 53,58.167L53,66.167C55.616,66.167 58.147,65.157 60.031,63.326L54.454,57.59ZM53,58.167L11,58.167L11,66.167L53,66.167L53,58.167ZM11,58.167C10.434,58.167 9.913,57.947 9.546,57.59L3.969,63.326C5.853,65.157 8.384,66.167 11,66.167L11,58.167ZM9.546,57.59C9.183,57.237 9,56.783 9,56.333L1,56.333C1,58.978 2.082,61.491 3.969,63.326L9.546,57.59ZM9,56.333L9,24.25L1,24.25L1,56.333L9,56.333ZM27,62.167L27,33L19,33L19,62.167L27,62.167ZM23,37L41,37L41,29L23,29L23,37ZM37,33L37,62.167L45,62.167L45,33L37,33Z" fill="#6D6D6D"/>
</svg>
