<svg width="140" height="122" viewBox="0 0 140 122" fill="none" xmlns="http://www.w3.org/2000/svg" xmlns:xlink="http://www.w3.org/1999/xlink">
<path d="M116.471,87.924C114.43,88.768 113.459,91.108 114.304,93.149C115.148,95.19 117.487,96.161 119.529,95.316L116.471,87.924ZM106,37.333L106.004,33.333L106,33.333L106,37.333ZM98.44,37.333L94.582,38.388C95.057,40.127 96.637,41.333 98.44,41.333L98.44,37.333ZM19.59,87.276C21.354,88.607 23.862,88.256 25.193,86.493C26.524,84.73 26.173,82.221 24.41,80.891L19.59,87.276ZM46,78.667C43.791,78.667 42,80.458 42,82.667C42,84.876 43.791,86.667 46,86.667L46,78.667ZM46.06,86.667C48.269,86.667 50.06,84.876 50.06,82.667C50.06,80.458 48.269,78.667 46.06,78.667L46.06,86.667ZM46,101.333C43.791,101.333 42,103.124 42,105.333C42,107.543 43.791,109.333 46,109.333L46,101.333ZM46.06,109.333C48.269,109.333 50.06,107.543 50.06,105.333C50.06,103.124 48.269,101.333 46.06,101.333L46.06,109.333ZM70,90C67.791,90 66,91.791 66,94C66,96.209 67.791,98 70,98L70,90ZM70.06,98C72.269,98 74.06,96.209 74.06,94C74.06,91.791 72.269,90 70.06,90L70.06,98ZM70,112.667C67.791,112.667 66,114.458 66,116.667C66,118.876 67.791,120.667 70,120.667L70,112.667ZM70.06,120.667C72.269,120.667 74.06,118.876 74.06,116.667C74.06,114.458 72.269,112.667 70.06,112.667L70.06,120.667ZM94,78.667C91.791,78.667 90,80.458 90,82.667C90,84.876 91.791,86.667 94,86.667L94,78.667ZM94.06,86.667C96.269,86.667 98.06,84.876 98.06,82.667C98.06,80.458 96.269,78.667 94.06,78.667L94.06,86.667ZM94,101.333C91.791,101.333 90,103.124 90,105.333C90,107.543 91.791,109.333 94,109.333L94,101.333ZM94.06,109.333C96.269,109.333 98.06,107.543 98.06,105.333C98.06,103.124 96.269,101.333 94.06,101.333L94.06,109.333ZM119.529,95.316C126.647,92.372 132.528,87.182 136.139,80.569L129.118,76.735C126.417,81.682 121.967,85.65 116.471,87.924L119.529,95.316ZM136.139,80.569C139.753,73.95 140.855,66.334 139.237,59.013L131.426,60.74C132.622,66.151 131.815,71.794 129.118,76.735L136.139,80.569ZM139.237,59.013C137.62,51.696 133.397,45.176 127.338,40.519L122.463,46.862C127.085,50.415 130.229,55.324 131.426,60.74L139.237,59.013ZM127.338,40.519C121.282,35.865 113.749,33.342 106.004,33.333L105.996,41.333C112.022,41.34 117.836,43.306 122.463,46.862L127.338,40.519ZM106,33.333L98.44,33.333L98.44,41.333L106,41.333L106,33.333ZM102.298,36.278C100.22,28.678 96.265,21.674 90.779,15.836L84.949,21.315C89.561,26.223 92.856,32.077 94.582,38.388L102.298,36.278ZM90.779,15.836C85.294,10 78.436,5.496 70.781,2.677L68.017,10.185C74.535,12.585 80.336,16.406 84.949,21.315L90.779,15.836ZM70.781,2.677C63.126,-0.141 54.88,-1.198 46.719,-0.413L47.485,7.55C54.458,6.879 61.497,7.784 68.017,10.185L70.781,2.677ZM46.719,-0.413C38.558,0.371 30.698,2.978 23.787,7.204L27.961,14.029C33.82,10.446 40.512,8.22 47.485,7.55L46.719,-0.413ZM23.787,7.204C16.876,11.431 11.104,17.163 6.966,23.943L13.794,28.111C17.253,22.444 22.103,17.612 27.961,14.029L23.787,7.204ZM6.966,23.943C2.826,30.725 0.443,38.355 0.03,46.203L8.018,46.624C8.361,40.122 10.336,33.777 13.794,28.111L6.966,23.943ZM0.03,46.203C-0.384,54.051 1.184,61.872 4.594,69.018L11.814,65.572C8.973,59.619 7.676,53.126 8.018,46.624L0.03,46.203ZM4.594,69.018C8.003,76.162 13.15,82.415 19.59,87.276L24.41,80.891C18.966,76.782 14.655,71.527 11.814,65.572L4.594,69.018ZM46,86.667L46.06,86.667L46.06,78.667L46,78.667L46,86.667ZM46,109.333L46.06,109.333L46.06,101.333L46,101.333L46,109.333ZM70,98L70.06,98L70.06,90L70,90L70,98ZM70,120.667L70.06,120.667L70.06,112.667L70,112.667L70,120.667ZM94,86.667L94.06,86.667L94.06,78.667L94,78.667L94,86.667ZM94,109.333L94.06,109.333L94.06,101.333L94,101.333L94,109.333Z" fill="#1E1E1E"/>
</svg>
